<svg id="Layer_1" data-name="Layer 1" xmlns="http://www.w3.org/2000/svg" viewBox="0 0 256 256"><defs><style>.cls-1,.cls-2{fill:none;stroke:#231f20;stroke-miterlimit:10;}.cls-1{stroke-width:20px;}.cls-2{stroke-width:5px;}</style></defs><circle class="cls-1" cx="128" cy="128" r="100"/><line class="cls-2" x1="128" y1="28" x2="128" y2="228"/><line class="cls-2" x1="138" y1="28" x2="138" y2="228"/><line class="cls-2" x1="118" y1="28" x2="118" y2="228"/><line class="cls-2" x1="158" y1="33" x2="158" y2="223"/><line class="cls-2" x1="98" y1="33" x2="98" y2="223"/><line class="cls-2" x1="178" y1="38" x2="178" y2="218"/><line class="cls-2" x1="78" y1="38" x2="78" y2="218"/><line class="cls-2" x1="198" y1="50.5" x2="198" y2="205.5"/><line class="cls-2" x1="58" y1="50.5" x2="58" y2="205.5"/><line class="cls-2" x1="128" y1="28" x2="128" y2="228"/><line class="cls-2" x1="148" y1="28" x2="148" y2="228"/><line class="cls-2" x1="148" y1="28" x2="148" y2="228"/><line class="cls-2" x1="108" y1="28" x2="108" y2="228"/><line class="cls-2" x1="168" y1="33" x2="168" y2="223"/><line class="cls-2" x1="88" y1="33" x2="88" y2="223"/><line class="cls-2" x1="188" y1="43" x2="188" y2="213"/><line class="cls-2" x1="68" y1="43" x2="68" y2="213"/><line class="cls-2" x1="208" y1="63" x2="208" y2="193"/><line class="cls-2" x1="48" y1="63" x2="48" y2="193"/><line class="cls-2" x1="218" y1="78" x2="218" y2="178"/><line class="cls-2" x1="38" y1="78" x2="38" y2="178"/></svg>