<svg id="Layer_1" data-name="Layer 1" xmlns="http://www.w3.org/2000/svg" viewBox="0 0 256 256"><defs><style>.cls-1{fill:none;stroke:#231f20;stroke-miterlimit:10;stroke-width:20px;}.cls-2{fill:#231f20;}</style></defs><circle class="cls-1" cx="128" cy="128" r="100"/><path class="cls-2" d="M130.35,84.62l6.29,17.67a2.5,2.5,0,0,0,3.43,1.42l16.94-8A2.5,2.5,0,0,1,160.34,99l-8.05,16.94a2.5,2.5,0,0,0,1.42,3.43l17.67,6.29a2.49,2.49,0,0,1,0,4.7l-17.67,6.29a2.5,2.5,0,0,0-1.42,3.43L160.34,157a2.5,2.5,0,0,1-3.33,3.33l-16.94-8.05a2.5,2.5,0,0,0-3.43,1.42l-6.29,17.67a2.49,2.49,0,0,1-4.7,0l-6.29-17.67a2.5,2.5,0,0,0-3.43-1.42L99,160.34A2.5,2.5,0,0,1,95.66,157l8-16.94a2.5,2.5,0,0,0-1.42-3.43l-17.67-6.29a2.49,2.49,0,0,1,0-4.7l17.67-6.29a2.5,2.5,0,0,0,1.42-3.43L95.66,99A2.5,2.5,0,0,1,99,95.66l16.94,8a2.5,2.5,0,0,0,3.43-1.42l6.29-17.67A2.49,2.49,0,0,1,130.35,84.62Z"/></svg>