<?xml version="1.0" encoding="utf-8"?>
<!-- Generator: Adobe Illustrator 24.1.1, SVG Export Plug-In . SVG Version: 6.00 Build 0)  -->
<svg version="1.1" id="Layer_1" xmlns="http://www.w3.org/2000/svg" xmlns:xlink="http://www.w3.org/1999/xlink" x="0px" y="0px"
	 viewBox="0 0 24 24" style="enable-background:new 0 0 24 24;" xml:space="preserve">
<style type="text/css">
	.st0{fill:none;}
	.st1{fill:#FFFFFF;}
</style>
<path class="st0" d="M0,0h24v24H0V0z"/>
<path class="st1" d="M12,17.3l5.2,3.1c0.4,0.2,0.9-0.1,0.8-0.5L16.5,14l4.6-3.9c0.3-0.3,0.2-0.8-0.3-0.9l-6-0.5l-2.4-5.5
	c-0.2-0.4-0.8-0.4-0.9,0L9.2,8.6l-6,0.5c-0.4,0-0.6,0.6-0.3,0.9L7.5,14l-1.4,5.9c-0.1,0.4,0.4,0.8,0.8,0.5L12,17.3z"/>
</svg>
