<?xml version="1.0" encoding="utf-8"?>
<!-- Generator: Adobe Illustrator 24.1.1, SVG Export Plug-In . SVG Version: 6.00 Build 0)  -->
<svg version="1.1" id="Layer_1" xmlns="http://www.w3.org/2000/svg" xmlns:xlink="http://www.w3.org/1999/xlink" x="0px" y="0px"
	 viewBox="0 0 24 24" style="enable-background:new 0 0 24 24;" xml:space="preserve">
<style type="text/css">
	.st0{fill:none;}
	.st1{fill:#FFFFFF;}
</style>
<path class="st0" d="M0,0h24v24H0V0z"/>
<path class="st1" d="M10,19.3v-5h4v5c0,0.5,0.4,1,1,1h3c0.5,0,1-0.5,1-1v-7h1.7c0.5,0,0.7-0.6,0.3-0.9l-8.4-7.5
	c-0.4-0.3-1-0.3-1.3,0L3,11.5c-0.3,0.3-0.1,0.9,0.3,0.9H5v7c0,0.5,0.4,1,1,1h3C9.5,20.3,10,19.9,10,19.3z"/>
</svg>
