<?xml version="1.0" encoding="utf-8"?>
<!-- Generator: Adobe Illustrator 24.1.1, SVG Export Plug-In . SVG Version: 6.00 Build 0)  -->
<svg version="1.1" id="Layer_1" xmlns="http://www.w3.org/2000/svg" xmlns:xlink="http://www.w3.org/1999/xlink" x="0px" y="0px"
	 viewBox="0 0 256 256" style="enable-background:new 0 0 256 256;" xml:space="preserve">
<style type="text/css">
	.st0{fill:none;stroke:#FFFFFF;stroke-width:4;stroke-linecap:round;stroke-miterlimit:10;}
</style>
<g>
	<line class="st0" x1="7" y1="70.9" x2="7" y2="165.2"/>
	<line class="st0" x1="20.5" y1="165.2" x2="20.5" y2="70.9"/>
	<line class="st0" x1="33.9" y1="84.3" x2="33.9" y2="165.2"/>
	<line class="st0" x1="47.4" y1="111.3" x2="47.4" y2="165.2"/>
	<line class="st0" x1="60.9" y1="111.3" x2="60.9" y2="165.2"/>
	<line class="st0" x1="74.4" y1="111.3" x2="74.4" y2="165.2"/>
	<line class="st0" x1="87.8" y1="111.3" x2="87.8" y2="165.2"/>
	<line class="st0" x1="101.3" y1="111.3" x2="101.3" y2="165.2"/>
	<line class="st0" x1="114.8" y1="111.3" x2="114.8" y2="165.2"/>
	<line class="st0" x1="128.3" y1="111.3" x2="128.3" y2="165.2"/>
	<line class="st0" x1="141.7" y1="111.3" x2="141.7" y2="165.2"/>
	<line class="st0" x1="155.2" y1="111.3" x2="155.2" y2="165.2"/>
	<line class="st0" x1="168.7" y1="84.3" x2="168.7" y2="165.2"/>
	<line class="st0" x1="182.2" y1="84.3" x2="182.2" y2="165.2"/>
	<line class="st0" x1="195.6" y1="84.3" x2="195.6" y2="165.2"/>
	<line class="st0" x1="209.1" y1="84.3" x2="209.1" y2="165.2"/>
	<line class="st0" x1="222.6" y1="84.3" x2="222.6" y2="165.2"/>
	<line class="st0" x1="236" y1="70.9" x2="236" y2="165.2"/>
	<line class="st0" x1="249.5" y1="165.2" x2="249.5" y2="70.9"/>
	<line class="st0" x1="7" y1="165.2" x2="249.5" y2="165.2"/>
	<line class="st0" x1="7" y1="151.7" x2="249.5" y2="151.7"/>
	<line class="st0" x1="7" y1="138.2" x2="249.5" y2="138.2"/>
	<line class="st0" x1="7" y1="124.8" x2="249.5" y2="124.8"/>
	<line class="st0" x1="7" y1="111.3" x2="249.5" y2="111.3"/>
	<line class="st0" x1="7" y1="97.8" x2="33.9" y2="97.8"/>
	<line class="st0" x1="7" y1="84.3" x2="33.9" y2="84.3"/>
	<line class="st0" x1="7" y1="70.9" x2="20.5" y2="70.9"/>
	<line class="st0" x1="236" y1="70.9" x2="249.5" y2="70.9"/>
	<line class="st0" x1="168.7" y1="84.3" x2="249.5" y2="84.3"/>
	<line class="st0" x1="168.7" y1="97.8" x2="249.5" y2="97.8"/>
	<line class="st0" x1="47.4" y1="171.9" x2="249.5" y2="171.9"/>
	<line class="st0" x1="47.4" y1="185.4" x2="249.5" y2="185.4"/>
	<line class="st0" x1="47.4" y1="198.9" x2="249.5" y2="198.9"/>
	<line class="st0" x1="47.4" y1="171.9" x2="47.4" y2="198.9"/>
	<line class="st0" x1="60.9" y1="171.9" x2="60.9" y2="198.9"/>
	<line class="st0" x1="74.4" y1="171.9" x2="74.4" y2="198.9"/>
	<line class="st0" x1="87.8" y1="171.9" x2="87.8" y2="198.9"/>
	<line class="st0" x1="101.3" y1="171.9" x2="101.3" y2="198.9"/>
	<line class="st0" x1="114.8" y1="171.9" x2="114.8" y2="198.9"/>
	<line class="st0" x1="128.3" y1="171.9" x2="128.3" y2="198.9"/>
	<line class="st0" x1="141.7" y1="171.9" x2="141.7" y2="198.9"/>
	<line class="st0" x1="155.2" y1="171.9" x2="155.2" y2="198.9"/>
	<line class="st0" x1="168.7" y1="171.9" x2="168.7" y2="198.9"/>
	<line class="st0" x1="182.2" y1="171.9" x2="182.2" y2="198.9"/>
	<line class="st0" x1="195.6" y1="171.9" x2="195.6" y2="198.9"/>
	<line class="st0" x1="209.1" y1="171.9" x2="209.1" y2="198.9"/>
	<line class="st0" x1="222.6" y1="171.9" x2="222.6" y2="198.9"/>
	<line class="st0" x1="236" y1="171.9" x2="236" y2="198.9"/>
	<line class="st0" x1="249.5" y1="171.9" x2="249.5" y2="198.9"/>
</g>
</svg>
