<?xml version="1.0" encoding="utf-8"?>
<!-- Generator: Adobe Illustrator 24.1.2, SVG Export Plug-In . SVG Version: 6.00 Build 0)  -->
<svg version="1.1" id="Layer_1" xmlns="http://www.w3.org/2000/svg" xmlns:xlink="http://www.w3.org/1999/xlink" x="0px" y="0px"
	 viewBox="0 0 24 24" style="enable-background:new 0 0 24 24;" xml:space="preserve">
<style type="text/css">
	.st0{fill:none;}
	.st1{fill:#FFFFFF;}
</style>
<path class="st0" d="M0,0h24v24H0V0z"/>
<g>
	<path class="st1" d="M11.9,2.9c0.2,0,0.4,0.1,0.5,0.3l2.4,5.5l6,0.5c0.5,0.1,0.6,0.6,0.3,0.9L16.5,14l1.5,5.9
		c0.1,0.3-0.2,0.6-0.5,0.6c-0.1,0-0.2,0-0.3-0.1L12,17.3l-5.1,3.1c-0.1,0.1-0.2,0.1-0.3,0.1c-0.3,0-0.6-0.3-0.5-0.6L7.5,14l-4.6-4
		C2.6,9.7,2.8,9.1,3.2,9.1l6-0.5l2.3-5.4C11.6,3,11.7,2.9,11.9,2.9 M11.9,1.9c-0.6,0-1.2,0.4-1.4,1l-2,4.8L3.1,8.1
		c-0.6,0-1,0.4-1.3,0.9c-0.2,0.6-0.1,1.3,0.3,1.7l0,0l0,0l4.1,3.6l-1.3,5.3c-0.1,0.4,0,0.9,0.3,1.2c0.3,0.4,0.7,0.6,1.2,0.6
		c0.3,0,0.6-0.1,0.9-0.3l4.6-2.8l4.7,2.8l0,0l0,0c0.2,0.1,0.5,0.2,0.7,0.2c0.5,0,1-0.2,1.2-0.6c0.3-0.3,0.4-0.8,0.3-1.2l-1.3-5.3
		l4.1-3.5l0,0l0,0c0.4-0.4,0.6-1,0.4-1.5C22,8.7,21.6,8.3,21,8.2l-0.1,0l-0.1,0l-5.4-0.5l-2.2-5l0,0l0,0C13,2.2,12.5,1.9,11.9,1.9
		L11.9,1.9z"/>
</g>
</svg>
