<svg id="Layer_1" data-name="Layer 1" xmlns="http://www.w3.org/2000/svg" viewBox="0 0 24 24"><defs><style>.cls-1{fill:none;}.cls-2{fill:#fff;}</style></defs><path class="cls-1" d="M0,0H24V24H0Z"/><path class="cls-2" d="M11.91,2.9a.55.55,0,0,1,.49.3l2.4,5.5,6,.5a.52.52,0,0,1,.3.9L16.5,14,18,19.9a.49.49,0,0,1-.53.56.66.66,0,0,1-.27-.06L12,17.3,6.9,20.4a.51.51,0,0,1-.3.1.51.51,0,0,1-.5-.6L7.5,14,2.9,10a.54.54,0,0,1,.3-.9l6-.5,2.3-5.4a.41.41,0,0,1,.41-.3m0-1a1.39,1.39,0,0,0-1.35,1l-2,4.79L3.15,8.1A1.44,1.44,0,0,0,1.88,9a1.56,1.56,0,0,0,.31,1.7l0,0,0,0,4.15,3.61L5.13,19.67a1.44,1.44,0,0,0,.27,1.24,1.54,1.54,0,0,0,1.2.59,1.52,1.52,0,0,0,.85-.26L12,18.47l4.68,2.79,0,0h0a1.5,1.5,0,0,0,.72.17,1.58,1.58,0,0,0,1.24-.59A1.39,1.39,0,0,0,19,19.66l-1.35-5.3,4.13-3.5,0,0,0,0a1.54,1.54,0,0,0,.39-1.53A1.52,1.52,0,0,0,21,8.22h-.12l-5.4-.45L13.32,2.8v0l0,0a1.54,1.54,0,0,0-1.38-.85Z"/></svg>