<svg xmlns="http://www.w3.org/2000/svg" viewBox="0 0 24 24"><defs><style>.cls-1{fill:none;}.cls-2{fill:#fff;}</style></defs><g id="Layer_2" data-name="Layer 2"><g id="Layer_1-2" data-name="Layer 1"><path class="cls-1" d="M0,0H24V24H0Z"/><path class="cls-2" d="M6.14,11.86,3.36,14.65a.51.51,0,0,0,0,.71l2.78,2.79A.5.5,0,0,0,7,17.8V16h6a1,1,0,0,0,0-2H7V12.21A.49.49,0,0,0,6.14,11.86ZM20.65,8.65,17.87,5.86a.5.5,0,0,0-.85.35V8H11a1,1,0,0,0,0,2h6v1.79a.49.49,0,0,0,.85.35l2.78-2.79A.49.49,0,0,0,20.65,8.65Z"/></g></g></svg>